<?xml version="1.0" encoding="UTF-8"?>
<svg id="Camada_1" data-name="Camada 1" xmlns="http://www.w3.org/2000/svg" viewBox="0 0 227.12 47.6">
  <defs>
    <style>
      .cls-1 {
        fill: #fff;
      }

      .cls-2 {
        fill: #fdfbfb;
      }

      .cls-3 {
        fill: #253d6a;
      }
    </style>
  </defs>
  <g>
    <path class="cls-2" d="M13.33-4.84h1.43V30.3h-.6c-2.3,0-4.16-1.87-4.16-4.16V-1.51c0-1.84,1.49-3.33,3.33-3.33Z" transform="translate(12.63 -5.03) rotate(45)"/>
    <path class="cls-2" d="M20,46.15l.68.56c1.95,1.15,3.45,1.31,5.03-.31l18.35-18.83-3.18-3.49-20.88,22.07Z"/>
    <rect class="cls-2" x="6.98" y="22.57" width="4.93" height="17.82" transform="translate(38.02 47.73) rotate(136.34)"/>
    <path class="cls-2" d="M39.87,7.1h.92v21.78h-4.93V11.11c0-2.21,1.8-4.01,4.01-4.01Z" transform="translate(78.46 4.55) rotate(136.34)"/>
    <rect class="cls-2" x="26.68" y="17.86" width="4.18" height="12.12" transform="translate(66.03 20.49) rotate(135)"/>
    <polygon class="cls-2" points="10.7 44.26 17.51 43.66 31.71 29.57 28.45 26.55 10.7 44.26"/>
    <polygon class="cls-2" points="29.25 4.66 26.38 7.56 23.37 4.54 26.03 1.52 29.25 4.66"/>
    <polygon class="cls-2" points="23.07 43.47 20 46.15 17.51 43.66 20.39 40.78 23.07 43.47"/>
    <polygon class="cls-2" points="24.9 27.31 21.56 29.73 15.68 23.85 18.56 20.97 24.9 27.31"/>
    <polygon class="cls-2" points="15.72 23.88 12.74 20.9 29.11 4.53 35.59 4.01 15.72 23.88"/>
  </g>
  <g>
    <polygon class="cls-2" points="75.14 17.4 53.06 17.4 56.52 11.41 80.49 11.33 75.14 17.4"/>
    <path class="cls-2" d="M67.87,36.48h-23.95l5.68-6.15,24.47-.32v.27c0,3.42-2.77,6.2-6.2,6.2Z"/>
    <path class="cls-2" d="M73.74,32.39l-7.18-.84.14-10.57h1.13s.08,0,.12,0c4.62.07,7.79,4.89,6.38,9.47l-.6,1.94Z"/>
    <path class="cls-2" d="M58.98,26.81h-2.44c-3.3-.33-6.23-3.08-6.23-6.88v-.71c0-4.21,3.17-7.89,6.98-7.89l2.09.06-.4,15.41Z"/>
    <polygon class="cls-2" points="66.86 26.8 58.05 26.8 58.18 21 66.86 20.98 66.86 26.8"/>
    <polygon class="cls-2" points="84.93 36.48 76.73 36.35 85.12 11.08 94.07 11.08 84.93 36.48"/>
    <polygon class="cls-2" points="98.29 27.05 86.43 27.05 93.4 20.97 103.65 21.08 98.29 27.05"/>
    <polygon class="cls-2" points="82.47 36.48 99.64 36.48 105.58 30.01 82.47 30.01 82.47 36.48"/>
    <polygon class="cls-2" points="114.15 36.43 105.49 36.21 114.2 11.25 122.51 11.25 114.15 36.43"/>
    <path class="cls-2" d="M139.21,17.36h-24.66l-.35-6.11,18.74-.12c3.46-.02,6.27,2.77,6.27,6.23h0Z"/>
    <path class="cls-2" d="M131.58,26.84h0c-.19,0-.34-.16-.34-.35l.28-9.63c0-.18.16-.33.34-.33h6.36c.54,0,.99.44.99.99v1.7c0,4.21-3.41,7.62-7.62,7.63Z"/>
    <polygon class="cls-2" points="132.23 26.83 123.06 26.89 123.06 21.04 132.06 21.04 132.23 26.83"/>
    <polygon class="cls-2" points="116.93 25.64 123.06 21.04 137.44 36.17 127.1 36.21 116.93 25.64"/>
    <polygon class="cls-2" points="152.61 36.11 143.89 36.15 149.95 16.9 159.2 16.86 152.61 36.11"/>
    <polygon class="cls-2" points="165.14 17.4 140.89 17.4 146.17 11.02 170.03 11.23 165.14 17.4"/>
    <polygon class="cls-1" points="221.99 17.4 207.12 17.51 207.28 11.4 227.12 11.04 221.99 17.4"/>
    <polygon class="cls-1" points="215.68 36.45 207.88 36.4 205.29 29.94 221.04 29.94 215.68 36.45"/>
    <path class="cls-1" d="M209.33,36.41l-3.35-.09c-.36-.02-.71-.07-1.05-.19-.87-.31-1.83-.5-2.59-1.05-1.04-.74-2.04-1.49-2.95-2.33-1.91-1.77-2.9-4.29-2.99-6.89-.02-.55-.07-1.06,0-1.55l.26-2.4s.01-.05.01-.06c.13-1.03.58-1.97,1.18-2.81l1.86-2.64,7.13,1.47.26.61-2.05,3.34-.29,4.3,4.56,10.31Z"/>
    <path class="cls-3" d="M59.16,17.43c.15-.06-.37-.02-.58.16-.77.73-.99,2.04-.37,2.82,1.76,2.21,1.63-2.45,1.05-2.92l-.09-.06Z"/>
    <path class="cls-3" d="M65.12,30.14c.16.03,1.55.06,1.74-.09.77-.59,1.23-2.17.6-2.79-1.76-1.75-2.61,1.9-2.03,2.28l-.31.6Z"/>
    <polygon class="cls-2" points="106.93 17.4 85.12 17.4 85.12 11.08 112.15 11.08 106.93 17.4"/>
    <polygon class="cls-2" points="172.37 36.58 164.16 36.46 172.55 11.19 181.5 11.19 172.37 36.58"/>
    <polygon class="cls-2" points="185.72 27.15 173.87 27.15 180.83 21.07 191.08 21.19 185.72 27.15"/>
    <polygon class="cls-2" points="169.9 36.58 187.07 36.58 193.01 30.12 169.9 30.12 169.9 36.58"/>
    <polygon class="cls-2" points="194.36 17.51 172.55 17.51 172.55 11.19 199.58 11.19 194.36 17.51"/>
    <path class="cls-3" d="M131.28,17.45c.06-.07.14-.11.24-.1.45.08,1.79.39,1.91,1.43.01.11.02.21.03.31.09.89-.5,1.71-1.38,1.88-.57.11-1.21.07-1.8-.09-1.24-.35.57-2.86,1.01-3.43Z"/>
    <path class="cls-1" d="M199.24,17.06c.82-.99,1.96-2.5,3.77-3.76,1.93-1.35,3.09-1.79,4.36-1.89,2.32-.2,4.3,4.4.87,6.54-2.28,1.42-3.45,1.22-9-.88Z"/>
    <path class="cls-1" d="M210.49,16.71c-.18-2.09-5.64,3.43-5.97,5.44-.09.56-.51,3.12.22,5.46.17.53.14,1.9.5,2.34.24.3,3.74.3,3.14-.01-1.04-.54-3.58-3.05-3.51-6.07.07-2.59,2.4-5.06,3.13-5.54,1.93-1.27,2.5-1.4,2.48-1.62Z"/>
  </g>
</svg>