<?xml version="1.0" encoding="UTF-8"?>
<svg id="Camada_2" data-name="Camada 2" xmlns="http://www.w3.org/2000/svg" viewBox="0 0 226.53 47.6">
  <defs>
    <style>
      .cls-1 {
        fill: #fff;
      }

      .cls-2 {
        fill: #fcfafa;
      }
    </style>
  </defs>
  <g>
    <path class="cls-2" d="M13.33-4.84h1.43V30.3h-.6c-2.3,0-4.16-1.87-4.16-4.16V-1.51c0-1.84,1.49-3.33,3.33-3.33Z" transform="translate(12.63 -5.03) rotate(45)"/>
    <path class="cls-2" d="M20,46.15l.68.56c1.95,1.15,3.45,1.31,5.03-.31l18.35-18.83-3.18-3.49-20.88,22.07Z"/>
    <rect class="cls-2" x="6.98" y="22.57" width="4.93" height="17.82" transform="translate(38.02 47.73) rotate(136.34)"/>
    <path class="cls-2" d="M39.87,7.1h.92v21.78h-4.93V11.11c0-2.21,1.8-4.01,4.01-4.01Z" transform="translate(78.46 4.55) rotate(136.34)"/>
    <rect class="cls-2" x="26.68" y="17.86" width="4.18" height="12.12" transform="translate(66.03 20.49) rotate(135)"/>
    <polygon class="cls-2" points="10.7 44.26 17.51 43.66 31.71 29.57 28.45 26.55 10.7 44.26"/>
    <polygon class="cls-2" points="29.25 4.66 26.38 7.56 23.37 4.54 26.03 1.52 29.25 4.66"/>
    <polygon class="cls-2" points="23.07 43.47 20 46.15 17.51 43.66 20.39 40.78 23.07 43.47"/>
    <polygon class="cls-2" points="24.9 27.31 21.56 29.73 15.68 23.85 18.56 20.97 24.9 27.31"/>
    <polygon class="cls-2" points="15.72 23.88 12.74 20.9 29.11 4.53 35.59 4.01 15.72 23.88"/>
  </g>
  <path class="cls-2" d="M55.94,16.88l-3.46,6h5.81c.09-.01.18-.02.26-.02.08,0,.15,0,.23.02h15.77l5.35-6.07-23.96.07Z"/>
  <path class="cls-2" d="M66.09,35.58c-.08,0-.15.01-.23,0l-16.85.22-5.68,6.15h23.95c3.42,0,6.2-2.77,6.2-6.2v-.27l-7.39.1Z"/>
  <path class="cls-2" d="M67.38,26.45s-.08,0-.12,0h-1.13l-.08,5.83c.06,0,.12.01.19.02.06,0,.13.01.19.03.12.03.23.08.34.14.11.06.2.14.3.22.03.03.06.06.09.09.07.09.16.19.22.29.04.07.07.14.1.21.05.11.09.22.11.34.03.16.06.32.04.48-.01.12-.02.24-.05.35-.02.07-.05.13-.08.2-.07.17-.14.29-.28.44-.08.08-.17.14-.26.2-.02.01-.04.03-.07.04-.21.1-.41.17-.64.22-.08.02-.16.03-.23.03l-.02,1.43,7.18.84.6-1.94c1.4-4.57-1.77-9.4-6.38-9.47Z"/>
  <path class="cls-2" d="M57.99,26.36c-.27-.1-.44-.19-.66-.38-.14-.12-.26-.27-.34-.43-.06-.12-.12-.25-.15-.39-.03-.13-.04-.27-.06-.41-.02-.18.01-.37.05-.55.01-.05.03-.1.04-.15.04-.11.09-.23.15-.34.09-.14.19-.28.32-.39.22-.19.38-.27.65-.38.18-.07.37-.08.56-.09.03,0,.06,0,.09,0l.16-5.99-2.09-.06c-3.81,0-6.98,3.67-6.98,7.89v.71c0,3.8,2.92,6.54,6.23,6.88h2.44l.15-5.8c-.19-.03-.38-.05-.56-.12Z"/>
  <path class="cls-2" d="M59.25,26.47c-.18.05-.37.07-.56.03-.06-.01-.13-.02-.19-.03h-.91s-.13,5.8-.13,5.8h8.81v-5.82l-7.03.02Z"/>
  <polygon class="cls-2" points="84.35 41.95 76.14 41.83 84.53 16.56 93.49 16.56 84.35 41.95"/>
  <polygon class="cls-2" points="97.71 32.52 85.85 32.52 92.82 26.44 103.07 26.56 97.71 32.52"/>
  <polygon class="cls-2" points="81.89 41.95 99.06 41.95 104.99 35.49 81.89 35.49 81.89 41.95"/>
  <polygon class="cls-2" points="113.49 42.09 104.83 41.88 113.53 16.91 121.85 16.91 113.49 42.09"/>
  <path class="cls-2" d="M132.27,16.79l-18.74.12.35,6.11h16.64s.05-.01.07-.01c.01,0,.02,0,.03,0,.01,0,.02,0,.03,0,.03,0,.05.01.07.01h7.81c0-3.46-2.81-6.25-6.27-6.23Z"/>
  <path class="cls-2" d="M137.56,22.19h-6.36c-.18,0-.33.15-.34.33v.52c.15.03.28.09.39.17.13.06.24.13.37.24.12.1.22.24.3.37.13.19.22.42.27.65.04.16.06.33.07.49,0,.08,0,.16,0,.24-.03.31-.08.61-.26.87-.21.31-.52.57-.9.65-.13.03-.25.03-.38.02l-.15,5.41c0,.19.15.35.34.35,4.21,0,7.62-3.41,7.62-7.63v-1.7c0-.54-.44-.99-.99-.99Z"/>
  <polygon class="cls-2" points="131.56 32.5 122.4 32.56 122.4 26.7 131.4 26.7 131.56 32.5"/>
  <polygon class="cls-2" points="116.27 31.3 122.4 26.7 136.77 41.83 126.44 41.88 116.27 31.3"/>
  <polygon class="cls-2" points="152.02 41.59 143.3 41.63 149.37 22.38 158.62 22.33 152.02 41.59"/>
  <polygon class="cls-2" points="164.55 22.88 140.3 22.88 145.59 16.49 169.45 16.7 164.55 22.88"/>
  <polygon class="cls-1" points="221.41 22.88 206.54 22.99 206.7 16.88 226.53 16.51 221.41 22.88"/>
  <polygon class="cls-1" points="215.1 41.93 207.3 41.87 204.7 35.42 220.45 35.42 215.1 41.93"/>
  <path class="cls-1" d="M208.75,41.88l-3.35-.09c-.36-.02-.71-.07-1.05-.19-.87-.31-1.83-.5-2.59-1.05-1.04-.74-2.04-1.49-2.95-2.33-1.91-1.77-2.9-4.29-2.99-6.89-.02-.55-.07-1.06,0-1.55l.26-2.4s.01-.05.01-.06c.13-1.03.58-1.97,1.18-2.81l1.86-2.64,7.13,1.47.26.61-2.05,3.34c-.1,1.52-.19,2.78-.29,4.3l4.56,10.31Z"/>
  <polygon class="cls-2" points="106.34 22.88 84.53 22.88 84.53 16.56 111.57 16.56 106.34 22.88"/>
  <polygon class="cls-2" points="171.78 42.06 163.57 41.93 171.97 16.67 180.92 16.67 171.78 42.06"/>
  <polygon class="cls-2" points="185.14 32.63 173.28 32.63 180.25 26.55 190.5 26.67 185.14 32.63"/>
  <polygon class="cls-2" points="169.32 42.06 186.49 42.06 192.43 35.6 169.32 35.6 169.32 42.06"/>
  <polygon class="cls-2" points="193.77 22.99 171.97 22.99 171.97 16.67 199 16.67 193.77 22.99"/>
  <path class="cls-1" d="M198.66,22.54c.82-.99,1.96-2.5,3.77-3.76,1.93-1.35,3.09-1.79,4.36-1.89,2.32-.2,4.3,4.4.87,6.54-2.28,1.42-3.45,1.22-9-.88Z"/>
  <path class="cls-1" d="M209.91,22.18c-.18-2.09-5.64,3.43-5.97,5.44-.09.56-.51,3.12.22,5.46.17.53.14,1.9.5,2.34.24.3,3.74.3,3.14-.01-1.04-.54-3.58-3.05-3.51-6.07.07-2.59,2.4-5.06,3.13-5.54,1.93-1.27,2.5-1.4,2.48-1.62Z"/>
  <g>
    <path class="cls-1" d="M53.16,12.07l-.1-.06c-.07-.03-.27-.27-.4-.46-.09-.13-.15-.28-.15-.43l-.02-.42c0-.08,0-.15.02-.23l.14-.62c.01-.05.03-.1.05-.15l1.28-2.96.94-.8,3.49-.24-2.36,4.36-1.13,2.43c-.07.02-.63-.05-.98-.12-.29-.06-.56-.16-.79-.31Z"/>
    <path class="cls-1" d="M54.89,7.17l10.14-.07,2.32-2-10.62.12c-.82,0-2.77,1.04-2.77,1.68l.93.27Z"/>
    <polygon class="cls-1" points="62.63 12.48 54.8 12.5 54.74 10.58 63.39 10.58 62.63 12.48"/>
    <polygon class="cls-1" points="62.63 12.48 59.8 12.48 61.96 7.96 64.99 7.96 62.63 12.48"/>
    <polygon class="cls-1" points="62.29 9.87 57.48 9.82 59.89 7.96 63.57 7.96 62.29 9.87"/>
    <path class="cls-1" d="M80.75,12.5l-1-.03c-.25-.01-.5-.08-.71-.2l-.43-.34c-.46-.53-.32-.82-.35-1.02l.13-.64,1.95-5.15,3.34.02-2.94,7.36Z"/>
    <path class="cls-1" d="M85.63,11.47l.07.8s-.12.18-.12.18c.45.01,1.27,0,1.72-.17l.47-.21c.75-.27,1.12-.79,1.27-.95l.38-.67,2.07-5.32h-3.32l-2.54,6.35Z"/>
    <polygon class="cls-1" points="85.76 12.46 80.54 12.5 80.54 10.44 86.98 10.44 85.76 12.46"/>
    <path class="cls-1" d="M113.04,5.1l-5.54-.05c-1.96.06-3.69,1.1-4.16,2.57l-.8,2.03c-.49,1.22-.29,2.77,2.36,2.92l5.55-.05c1.8-.02,3.24-.96,3.69-2.31l1.05-2.9c.32-1.42-.63-2.2-2.15-2.22ZM111.58,7.84l-.57,1.51c-.25.68-.78,1.27-1.76,1.28l-2.72-.04c-.19,0-.77-.05-.61-.66l.63-1.68c.11-.3.33-.58.63-.79.22-.15.45-.28.66-.3h2.99c.57-.01.9.26.73.68Z"/>
    <polygon class="cls-1" points="68.3 12.5 64.77 12.44 68.32 5.03 71.72 5.03 68.3 12.5"/>
    <path class="cls-1" d="M75.97,5l-7.65.04.14,1.81h6.79s.02,0,.03,0c0,0,0,0,.01,0,0,0,0,0,.01,0,.01,0,.02,0,.03,0h3.19c0-1.03-1.15-1.85-2.56-1.85Z"/>
    <path class="cls-1" d="M78.13,6.6h-2.6c-.07,0-.14.04-.14.1v.16c.06,0,.12.03.16.05.05.02.1.04.15.07.05.03.09.07.12.11.05.06.09.13.11.19.02.05.02.1.03.15,0,.02,0,.05,0,.07-.01.09-.03.18-.11.26-.09.09-.21.17-.37.19-.05,0-.1.01-.15,0l-.06,1.61c0,.06.06.1.14.1,1.72,0,3.11-1.01,3.11-2.26v-.5c0-.16-.18-.29-.4-.29Z"/>
    <polygon class="cls-1" points="75.68 9.65 71.94 9.67 71.94 7.94 75.61 7.94 75.68 9.65"/>
    <polygon class="cls-1" points="69.44 9.3 71.94 7.94 77.8 12.42 73.59 12.44 69.44 9.3"/>
    <path class="cls-1" d="M100.37,5.03l-7.65.04.14,1.81h6.79s.02,0,.03,0c0,0,0,0,.01,0,0,0,0,0,.01,0,.01,0,.02,0,.03,0h3.19c0-1.03-1.15-1.85-2.56-1.85Z"/>
    <path class="cls-1" d="M102.53,6.63h-2.6c-.07,0-.14.04-.14.1v.16c.06,0,.12.03.16.05.05.02.1.04.15.07.05.03.09.07.12.11.05.06.09.13.11.19.02.05.02.1.03.15,0,.02,0,.05,0,.07-.01.09-.03.18-.11.26-.09.09-.21.17-.37.19-.05,0-.1.01-.15,0l-.06,1.61c0,.06.06.1.14.1,1.72,0,3.11-1.01,3.11-2.26v-.5c0-.16-.18-.29-.4-.29Z"/>
    <polygon class="cls-1" points="100.08 9.69 96.34 9.71 96.34 7.97 100.01 7.97 100.08 9.69"/>
    <polygon class="cls-1" points="93.99 9.37 96.34 7.97 96.82 9.71 92.83 9.71 93.99 9.37"/>
    <polygon class="cls-1" points="93.01 12.5 89.59 12.5 92.6 5.05 95.88 5.05 93.01 12.5"/>
  </g>
</svg>